<svg width="21" height="20" viewBox="0 0 21 20" fill="none" xmlns="http://www.w3.org/2000/svg">
<path fill-rule="evenodd" clip-rule="evenodd" d="M2.214 1.464C0.75 2.93 0.75 5.286 0.75 10C0.75 14.714 0.75 17.071 2.214 18.535C3.68 20 6.036 20 10.75 20C15.464 20 17.821 20 19.285 18.535C20.75 17.072 20.75 14.714 20.75 10C20.75 5.286 20.75 2.929 19.285 1.464C17.822 0 15.464 0 10.75 0C6.036 0 3.679 0 2.214 1.464ZM9.294 5.517C9.36189 5.44563 9.41506 5.36158 9.45048 5.26966C9.48589 5.17773 9.50285 5.07974 9.50039 4.98126C9.49793 4.88279 9.47609 4.78576 9.43613 4.69572C9.39618 4.60568 9.33887 4.52439 9.2675 4.4565C9.19613 4.38861 9.11208 4.33544 9.02016 4.30002C8.92824 4.26461 8.83024 4.24765 8.73176 4.25011C8.63329 4.25257 8.53626 4.27441 8.44622 4.31437C8.35618 4.35432 8.27489 4.41163 8.207 4.483L5.893 6.913L5.293 6.283C5.22584 6.20878 5.14451 6.14876 5.05379 6.10646C4.96307 6.06417 4.8648 6.04046 4.76478 6.03674C4.66476 6.03302 4.565 6.04935 4.47139 6.08478C4.37778 6.12022 4.2922 6.17403 4.21971 6.24305C4.14722 6.31207 4.08928 6.3949 4.0493 6.48666C4.00932 6.57842 3.98812 6.67726 3.98693 6.77734C3.98575 6.87743 4.00461 6.97674 4.0424 7.06942C4.0802 7.1621 4.13616 7.24628 4.207 7.317L5.35 8.517C5.42005 8.59052 5.50429 8.64905 5.59763 8.68904C5.69097 8.72903 5.79146 8.74965 5.893 8.74965C5.99454 8.74965 6.09503 8.72903 6.18837 8.68904C6.28171 8.64905 6.36595 8.59052 6.436 8.517L9.294 5.517ZM11.75 6.25C11.5511 6.25 11.3603 6.32902 11.2197 6.46967C11.079 6.61032 11 6.80109 11 7C11 7.19891 11.079 7.38968 11.2197 7.53033C11.3603 7.67098 11.5511 7.75 11.75 7.75H16.75C16.9489 7.75 17.1397 7.67098 17.2803 7.53033C17.421 7.38968 17.5 7.19891 17.5 7C17.5 6.80109 17.421 6.61032 17.2803 6.46967C17.1397 6.32902 16.9489 6.25 16.75 6.25H11.75ZM9.293 12.517C9.36384 12.4463 9.4198 12.3621 9.4576 12.2694C9.49539 12.1767 9.51425 12.0774 9.51307 11.9773C9.51188 11.8773 9.49068 11.7784 9.4507 11.6867C9.41072 11.5949 9.35278 11.5121 9.28029 11.443C9.2078 11.374 9.12222 11.3202 9.02861 11.2848C8.935 11.2494 8.83524 11.233 8.73522 11.2367C8.6352 11.2405 8.53693 11.2642 8.44621 11.3065C8.35549 11.3488 8.27416 11.4088 8.207 11.483L5.893 13.913L5.293 13.283C5.22584 13.2088 5.14451 13.1488 5.05379 13.1065C4.96307 13.0642 4.8648 13.0405 4.76478 13.0367C4.66476 13.033 4.565 13.0494 4.47139 13.0848C4.37778 13.1202 4.2922 13.174 4.21971 13.243C4.14722 13.3121 4.08928 13.3949 4.0493 13.4867C4.00932 13.5784 3.98812 13.6773 3.98693 13.7773C3.98575 13.8774 4.00461 13.9767 4.0424 14.0694C4.0802 14.1621 4.13616 14.2463 4.207 14.317L5.35 15.517C5.42005 15.5905 5.50429 15.649 5.59763 15.689C5.69097 15.729 5.79146 15.7497 5.893 15.7497C5.99454 15.7497 6.09503 15.729 6.18837 15.689C6.28171 15.649 6.36595 15.5905 6.436 15.517L9.293 12.517ZM11.75 13.25C11.5511 13.25 11.3603 13.329 11.2197 13.4697C11.079 13.6103 11 13.8011 11 14C11 14.1989 11.079 14.3897 11.2197 14.5303C11.3603 14.671 11.5511 14.75 11.75 14.75H16.75C16.9489 14.75 17.1397 14.671 17.2803 14.5303C17.421 14.3897 17.5 14.1989 17.5 14C17.5 13.8011 17.421 13.6103 17.2803 13.4697C17.1397 13.329 16.9489 13.25 16.75 13.25H11.75Z" fill="#80B3FF"/>
</svg>
