<svg width="21" height="20" viewBox="0 0 21 20" fill="none" xmlns="http://www.w3.org/2000/svg">
<path d="M7.37495 20L6.97495 16.8C6.75829 16.7167 6.55395 16.6167 6.36195 16.5C6.16995 16.3833 5.98262 16.2583 5.79995 16.125L2.82495 17.375L0.0749512 12.625L2.64995 10.675C2.63328 10.5583 2.62495 10.4457 2.62495 10.337V9.663C2.62495 9.55433 2.63328 9.44167 2.64995 9.325L0.0749512 7.375L2.82495 2.625L5.79995 3.875C5.98328 3.74167 6.17495 3.61667 6.37495 3.5C6.57495 3.38333 6.77495 3.28333 6.97495 3.2L7.37495 0H12.875L13.275 3.2C13.4916 3.28333 13.696 3.38333 13.888 3.5C14.08 3.61667 14.2673 3.74167 14.45 3.875L17.4249 2.625L20.1749 7.375L17.6 9.325C17.6166 9.44167 17.625 9.55433 17.625 9.663V10.337C17.625 10.4457 17.6083 10.5583 17.575 10.675L20.15 12.625L17.4 17.375L14.45 16.125C14.2666 16.2583 14.075 16.3833 13.875 16.5C13.675 16.6167 13.475 16.7167 13.275 16.8L12.875 20H7.37495ZM10.175 13.5C11.1416 13.5 11.9666 13.1583 12.65 12.475C13.3333 11.7917 13.675 10.9667 13.675 10C13.675 9.03333 13.3333 8.20833 12.65 7.525C11.9666 6.84167 11.1416 6.5 10.175 6.5C9.19162 6.5 8.36228 6.84167 7.68695 7.525C7.01162 8.20833 6.67428 9.03333 6.67495 10C6.67495 10.9667 7.01229 11.7917 7.68695 12.475C8.36162 13.1583 9.19095 13.5 10.175 13.5Z" fill="#80B3FF"/>
</svg>
