<svg width="25" height="24" viewBox="0 0 25 24" fill="none" xmlns="http://www.w3.org/2000/svg">
<path d="M14 19C13.7167 19 13.479 18.904 13.287 18.712C13.095 18.52 12.9993 18.2827 13 18V6C13 5.71667 13.096 5.479 13.288 5.287C13.48 5.095 13.7173 4.99934 14 5H15.375C15.6583 5 15.896 5.096 16.088 5.288C16.28 5.48 16.3757 5.71734 16.375 6V18C16.375 18.2833 16.279 18.521 16.087 18.713C15.895 18.905 15.6577 19.0007 15.375 19H14ZM9.125 19C8.84167 19 8.604 18.904 8.412 18.712C8.22 18.52 8.12434 18.2827 8.125 18V6C8.125 5.71667 8.221 5.479 8.413 5.287C8.605 5.095 8.842 4.99934 9.124 5H10.499C10.7823 5 11.02 5.096 11.212 5.288C11.404 5.48 11.5 5.71734 11.5 6V18C11.5 18.2833 11.404 18.521 11.212 18.713C11.02 18.905 10.7827 19.0007 10.5 19H9.125ZM4.25 19C3.96667 19 3.729 18.904 3.537 18.712C3.345 18.52 3.24934 18.2827 3.25 18V6C3.25 5.71667 3.346 5.479 3.538 5.287C3.73 5.095 3.96734 4.99934 4.25 5H5.625C5.90834 5 6.146 5.096 6.338 5.288C6.53 5.48 6.62567 5.71734 6.625 6V18C6.625 18.2833 6.529 18.521 6.337 18.713C6.145 18.905 5.908 19.0007 5.626 19H4.25ZM18.875 19C18.5917 19 18.354 18.904 18.162 18.712C17.97 18.52 17.8747 18.2827 17.876 18V6C17.876 5.71667 17.972 5.479 18.164 5.287C18.356 5.095 18.593 4.99934 18.875 5H20.25C20.5333 5 20.771 5.096 20.963 5.288C21.155 5.48 21.2507 5.71734 21.25 6V18C21.25 18.2833 21.154 18.521 20.962 18.713C20.77 18.905 20.5327 19.0007 20.25 19H18.875Z" fill="#80B3FF"/>
</svg>
