<svg width="24" height="24" viewBox="0 0 24 24" fill="none" xmlns="http://www.w3.org/2000/svg">
<path d="M13.75 19C13.4667 19 13.229 18.904 13.037 18.712C12.845 18.52 12.7493 18.2827 12.75 18V6C12.75 5.71667 12.846 5.479 13.038 5.287C13.23 5.095 13.4673 4.99934 13.75 5H15.125C15.4083 5 15.646 5.096 15.838 5.288C16.03 5.48 16.1257 5.71734 16.125 6V18C16.125 18.2833 16.029 18.521 15.837 18.713C15.645 18.905 15.4077 19.0007 15.125 19H13.75ZM8.875 19C8.59167 19 8.354 18.904 8.162 18.712C7.97 18.52 7.87434 18.2827 7.875 18V6C7.875 5.71667 7.971 5.479 8.163 5.287C8.355 5.095 8.592 4.99934 8.874 5H10.249C10.5323 5 10.77 5.096 10.962 5.288C11.154 5.48 11.25 5.71734 11.25 6V18C11.25 18.2833 11.154 18.521 10.962 18.713C10.77 18.905 10.5327 19.0007 10.25 19H8.875ZM4 19C3.71667 19 3.479 18.904 3.287 18.712C3.095 18.52 2.99934 18.2827 3 18V6C3 5.71667 3.096 5.479 3.288 5.287C3.48 5.095 3.71734 4.99934 4 5H5.375C5.65834 5 5.896 5.096 6.088 5.288C6.28 5.48 6.37567 5.71734 6.375 6V18C6.375 18.2833 6.279 18.521 6.087 18.713C5.895 18.905 5.658 19.0007 5.376 19H4ZM18.625 19C18.3417 19 18.104 18.904 17.912 18.712C17.72 18.52 17.6247 18.2827 17.626 18V6C17.626 5.71667 17.722 5.479 17.914 5.287C18.106 5.095 18.343 4.99934 18.625 5H20C20.2833 5 20.521 5.096 20.713 5.288C20.905 5.48 21.0007 5.71734 21 6V18C21 18.2833 20.904 18.521 20.712 18.713C20.52 18.905 20.2827 19.0007 20 19H18.625Z" fill="white"/>
</svg>
